<?xml version="1.0" encoding="UTF-8" standalone="no"?>
<svg
   xmlns:dc="http://purl.org/dc/elements/1.1/"
   xmlns:cc="http://creativecommons.org/ns#"
   xmlns:rdf="http://www.w3.org/1999/02/22-rdf-syntax-ns#"
   xmlns:svg="http://www.w3.org/2000/svg"
   xmlns="http://www.w3.org/2000/svg"
   xml:space="preserve"
   viewBox="0 0 136.867 97.079002"
   height="97.079002"
   width="136.867"
   y="0px"
   x="0px"
   id="Layer_1"
   version="1.0"><metadata
     id="metadata192"><rdf:RDF><cc:Work
         rdf:about=""><dc:format>image/svg+xml</dc:format><dc:type
           rdf:resource="http://purl.org/dc/dcmitype/StillImage" /><dc:title></dc:title></cc:Work></rdf:RDF></metadata><defs
     id="defs190" /><g
     transform="translate(-5.415,-7.342)"
     id="g185"><path
       id="path173"
       d="m 26.514,55.907 c 0,26.104 21.236,47.342 47.338,47.342 26.104,0 47.342,-21.237 47.342,-47.342 0,-26.103 -21.238,-47.339 -47.342,-47.339 -26.102,0 -47.338,21.237 -47.338,47.339 z m 3.802,0 c 0,-24.006 19.53,-43.536 43.536,-43.536 24.007,0 43.539,19.53 43.539,43.536 0,24.007 -19.532,43.539 -43.539,43.539 -24.005,0 -43.536,-19.532 -43.536,-43.539 z"
       style="fill:#fdcc12" /><path
       id="path175"
       d="m 111.149,18.224 c 20.657,20.659 20.657,54.274 0,74.933 l 3.227,3.227 c 22.436,-22.438 22.436,-58.947 0,-81.385 z"
       style="fill:#fdcc12" /><path
       id="path177"
       d="M 33.314,96.656 36.541,93.43 C 15.882,72.77 15.881,39.156 36.539,18.496 L 33.313,15.27 C 10.876,37.71 10.876,74.219 33.314,96.656 Z"
       style="fill:#fdcc12" /><path
       id="path179"
       d="m 118.454,11.105 c 24.613,24.613 24.613,64.662 0,89.274 l 3.764,3.765 c 12.94,-12.938 20.064,-30.128 20.064,-48.401 0,-18.273 -7.124,-35.463 -20.064,-48.401 z"
       style="fill:#fdcc12" /><path
       id="path181"
       d="m 25.431,104.421 3.764,-3.765 C 4.583,76.042 4.583,35.994 29.195,11.382 L 25.431,7.617 c -26.688,26.688 -26.688,70.113 0,96.804 z"
       style="fill:#fdcc12" /><path
       id="path183"
       d="m 97.973,36.177 c 1.595,2.627 2.678,5.604 3.251,8.926 -1.725,0.516 -3.429,0.772 -5.112,0.772 -2.862,0 -5.869,-0.758 -9.023,-2.276 v -0.628 c 0,-2.949 -4.413,-4.425 -13.233,-4.425 -9.118,0 -13.676,1.474 -13.676,4.422 v 0.628 c -3.017,1.729 -5.996,2.593 -8.934,2.593 -1.744,0 -3.477,-0.321 -5.201,-0.968 0.548,-3.171 1.636,-6.186 3.266,-9.044 3.727,-1.385 7.604,-2.417 11.636,-3.099 4.031,-0.683 8.214,-1.024 12.549,-1.024 4.491,0 8.776,0.342 12.856,1.024 4.079,0.682 7.953,1.714 11.621,3.099 z m -37.794,9.094 v 1.074 c 0,2.323 -0.682,4.012 -2.043,5.067 -1.362,1.055 -3.541,1.582 -6.538,1.582 -2.156,0 -3.62,-0.352 -4.394,-1.056 -0.774,-0.703 -1.16,-2.04 -1.16,-4.008 v -1.245 c 1.978,0.646 3.771,0.969 5.378,0.969 3.017,10e-4 5.935,-0.793 8.757,-2.383 z m 9.005,1.651 h 8.9 v -3.979 h 6.492 v 5.502 l 7.722,12.419 c 1.129,1.809 1.87,3.288 2.222,4.438 0.351,1.151 0.527,2.67 0.527,4.558 v 6.902 H 52.222 V 69.86 c 0,-2.93 0.976,-5.968 2.925,-9.114 l 7.545,-12.301 v -5.502 h 6.492 z m -3.769,4.712 v 2.617 h 3.665 v -2.617 z m 0,4.397 v 2.618 h 3.665 v -2.618 z m 0,4.398 v 2.513 h 3.665 v -2.513 z m 6.177,-8.795 v 2.617 h 3.665 v -2.617 z m 0,4.397 v 2.618 h 3.665 v -2.618 z m 0,4.398 v 2.513 h 3.665 v -2.513 z m 6.178,-8.795 v 2.617 h 3.664 v -2.617 z m 0,4.397 v 2.618 h 3.664 v -2.618 z m 0,4.398 v 2.513 h 3.664 v -2.513 z m 23.454,-13.861 v 1.397 c 0,1.805 -0.388,3.041 -1.162,3.71 -0.774,0.671 -2.208,1.005 -4.304,1.005 -2.938,0 -5.119,-0.516 -6.54,-1.546 -1.42,-1.031 -2.13,-2.616 -2.13,-4.756 v -1.313 c 2.781,1.518 5.78,2.275 8.993,2.275 1.841,10e-4 3.556,-0.256 5.143,-0.772 z"
       style="fill:#fdcc12" /></g></svg>