<?xml version="1.0" encoding="UTF-8" standalone="no"?>
<svg
   xmlns:dc="http://purl.org/dc/elements/1.1/"
   xmlns:cc="http://creativecommons.org/ns#"
   xmlns:rdf="http://www.w3.org/1999/02/22-rdf-syntax-ns#"
   xmlns:svg="http://www.w3.org/2000/svg"
   xmlns="http://www.w3.org/2000/svg"
   xml:space="preserve"
   viewBox="0 0 604.56097 249.14217"
   height="249.14217"
   width="604.56097"
   y="0px"
   x="0px"
   id="Layer_1"
   version="1.0"><metadata
     id="metadata319"><rdf:RDF><cc:Work
         rdf:about=""><dc:format>image/svg+xml</dc:format><dc:type
           rdf:resource="http://purl.org/dc/dcmitype/StillImage" /><dc:title></dc:title></cc:Work></rdf:RDF></metadata><defs
     id="defs317" /><g
     transform="translate(-158.006,148.61517)"
     id="g298"><g
       id="g268"><path
         id="path248"
         d="m 167.312,67.132 c -1.167,0 -2.321,-0.094 -3.46,-0.278 -1.141,-0.188 -2.241,-0.73 -3.301,-1.627 -1.273,-1.055 -2.016,-2.155 -2.227,-3.295 -0.213,-1.134 -0.318,-2.362 -0.318,-3.688 V 20.159 c 0,-1.057 0.132,-2.142 0.397,-3.254 0.265,-1.108 0.928,-2.139 1.99,-3.092 1.059,-0.952 2.198,-1.561 3.418,-1.828 1.221,-0.264 2.334,-0.396 3.341,-0.396 h 39.934 v 13.515 h -27.454 c -0.529,0 -1.044,0.069 -1.549,0.201 -0.502,0.132 -0.912,0.325 -1.228,0.59 -0.424,0.372 -0.676,0.82 -0.755,1.346 -0.08,0.531 -0.118,0.981 -0.118,1.35 v 4.2 h 30.311 v 12.025 h -30.311 v 6.028 c 0,0.582 0.079,1.03 0.238,1.349 0.159,0.318 0.343,0.554 0.556,0.714 0.423,0.421 0.95,0.646 1.585,0.673 0.635,0.027 1.243,0.038 1.826,0.038 h 27.136 v 13.515 h -40.011 z"
         style="fill:#ffffff" /><path
         id="path250"
         d="m 239.613,49.279 c 0.159,0.476 0.343,0.795 0.556,0.953 0.212,0.159 0.371,0.237 0.475,0.237 0.105,0 0.263,-0.078 0.477,-0.237 0.21,-0.157 0.396,-0.477 0.556,-0.953 l 13.012,-37.69 h 19.204 L 254.61,58.787 c -0.477,1.217 -1.071,2.37 -1.784,3.451 -0.715,1.084 -1.602,2.034 -2.66,2.854 -1.059,0.822 -2.354,1.47 -3.888,1.945 -1.534,0.474 -3.412,0.714 -5.633,0.714 -2.222,0 -4.099,-0.24 -5.634,-0.714 -1.533,-0.476 -2.844,-1.123 -3.928,-1.945 -1.085,-0.82 -1.97,-1.771 -2.659,-2.854 -0.687,-1.081 -1.269,-2.234 -1.745,-3.451 L 207.398,11.589 h 19.204 z"
         style="fill:#ffffff" /><path
         id="path252"
         d="m 282.284,67.132 c -1.165,0 -2.32,-0.094 -3.459,-0.278 -1.141,-0.188 -2.241,-0.73 -3.301,-1.627 -1.274,-1.055 -2.016,-2.155 -2.228,-3.295 -0.213,-1.134 -0.317,-2.362 -0.317,-3.688 V 20.159 c 0,-1.057 0.131,-2.142 0.396,-3.254 0.266,-1.108 0.928,-2.139 1.99,-3.092 1.06,-0.952 2.198,-1.561 3.418,-1.828 1.222,-0.264 2.335,-0.396 3.342,-0.396 h 39.933 v 13.515 h -27.453 c -0.53,0 -1.045,0.069 -1.548,0.201 -0.504,0.132 -0.913,0.325 -1.229,0.59 -0.424,0.372 -0.676,0.82 -0.755,1.346 -0.08,0.531 -0.119,0.981 -0.119,1.35 v 4.2 h 30.311 v 12.025 h -30.311 v 6.028 c 0,0.582 0.08,1.03 0.239,1.349 0.158,0.318 0.342,0.554 0.555,0.714 0.423,0.421 0.95,0.646 1.585,0.673 0.635,0.027 1.243,0.038 1.827,0.038 h 27.135 v 13.515 h -40.011 z"
         style="fill:#ffffff" /><path
         id="path254"
         d="m 388.432,57.864 c 0,0.477 -0.08,1.271 -0.238,2.379 -0.158,1.116 -0.634,2.224 -1.428,3.331 -0.795,1.117 -1.999,2.093 -3.616,2.938 -1.615,0.844 -3.878,1.271 -6.791,1.271 -1.059,0 -2.121,-0.056 -3.177,-0.16 -1.06,-0.104 -2.106,-0.345 -3.139,-0.717 -1.031,-0.368 -2.038,-0.923 -3.018,-1.666 -0.98,-0.736 -1.892,-1.716 -2.739,-2.937 L 344.19,33.982 c -0.213,-0.263 -0.452,-0.559 -0.716,-0.876 -0.264,-0.317 -0.53,-0.477 -0.793,-0.477 -0.106,0 -0.319,0.067 -0.637,0.198 -0.317,0.131 -0.475,0.596 -0.475,1.391 V 67.145 H 327.806 V 20.809 c 0,-1.796 0.344,-3.316 1.034,-4.563 0.688,-1.24 1.613,-2.258 2.779,-3.053 1.163,-0.794 2.501,-1.363 4.011,-1.704 1.508,-0.35 3.059,-0.52 4.647,-0.52 0.741,0 1.616,0.038 2.622,0.121 1.005,0.081 2.039,0.29 3.099,0.635 1.057,0.345 2.116,0.86 3.177,1.546 1.057,0.69 2.009,1.643 2.858,2.86 l 20.255,28.562 c 0.212,0.262 0.436,0.557 0.674,0.875 0.239,0.317 0.518,0.473 0.834,0.473 0.422,0 0.674,-0.17 0.755,-0.511 0.078,-0.35 0.121,-0.624 0.121,-0.836 v -33.09 h 13.76 z"
         style="fill:#ffffff" /><path
         id="path256"
         d="M 411.364,67.132 V 25.351 H 391.527 V 11.589 h 57.651 v 13.762 h -19.836 v 41.781 z"
         style="fill:#ffffff" /><path
         id="path258"
         d="M 452.381,67.132 V 22.065 c 0,-1.163 0.132,-2.46 0.396,-3.891 0.263,-1.425 0.873,-2.673 1.828,-3.726 0.58,-0.689 1.48,-1.341 2.698,-1.945 1.219,-0.612 2.784,-0.915 4.688,-0.915 h 30.745 c 2.223,0 4.339,0.225 6.352,0.674 2.012,0.45 3.786,1.527 5.324,3.217 1.323,1.379 2.343,3.246 3.057,5.602 0.715,2.355 1.073,5.545 1.073,9.57 0,0.954 -0.041,2.208 -0.12,3.774 -0.079,1.557 -0.29,3.188 -0.636,4.88 -0.344,1.694 -0.847,3.333 -1.507,4.921 -0.663,1.589 -1.576,2.89 -2.739,3.893 -1.322,1.112 -2.898,1.895 -4.723,2.345 -1.827,0.449 -3.509,0.674 -5.043,0.674 h -23.419 v 15.993 h -17.974 z m 30.813,-29.755 c 1.108,0 2.191,-0.038 3.251,-0.121 1.055,-0.081 1.955,-0.523 2.696,-1.321 0.947,-1.069 1.425,-2.7 1.425,-4.893 0,-0.748 -0.08,-1.523 -0.237,-2.325 -0.161,-0.801 -0.607,-1.495 -1.349,-2.083 -0.738,-0.639 -1.6,-1.012 -2.574,-1.12 -0.979,-0.108 -1.997,-0.163 -3.053,-0.163 h -9.906 c -0.741,0 -1.309,0.121 -1.702,0.361 -0.397,0.24 -0.702,0.524 -0.914,0.84 -0.211,0.326 -0.343,0.671 -0.395,1.047 -0.055,0.371 -0.08,0.72 -0.08,1.038 v 8.741 h 12.838 z"
         style="fill:#fdcc12" /><path
         id="path260"
         d="M 570.863,67.132 H 552.886 V 45.064 H 532.8 V 67.131 H 514.823 V 11.589 H 532.8 v 19.714 h 20.086 V 11.589 h 17.977 z"
         style="fill:#fdcc12" /><path
         id="path262"
         d="m 614.238,11.09 c 2.223,0.081 4.403,0.306 6.547,0.673 2.142,0.368 4.181,0.938 6.114,1.705 1.929,0.768 3.637,1.836 5.121,3.212 1.48,1.375 2.642,2.986 3.487,4.835 0.848,1.851 1.484,3.78 1.904,5.792 0.427,2.01 0.675,4.057 0.756,6.145 0.082,2.088 0.121,4.056 0.121,5.908 0,1.853 -0.039,3.808 -0.121,5.871 -0.081,2.061 -0.329,4.094 -0.756,6.105 -0.42,2.012 -1.057,3.94 -1.904,5.789 -0.846,1.853 -2.007,3.49 -3.487,4.917 -1.484,1.374 -3.192,2.447 -5.121,3.215 -1.934,0.767 -3.973,1.332 -6.114,1.705 -2.144,0.364 -4.34,0.589 -6.588,0.673 -2.251,0.079 -4.408,0.117 -6.471,0.117 -2.064,0 -4.222,-0.038 -6.469,-0.117 -2.247,-0.084 -4.448,-0.309 -6.586,-0.673 -2.146,-0.373 -4.185,-0.938 -6.114,-1.705 -1.933,-0.768 -3.642,-1.841 -5.121,-3.215 -1.535,-1.427 -2.712,-3.064 -3.53,-4.917 -0.821,-1.849 -1.444,-3.777 -1.864,-5.789 -0.426,-2.011 -0.677,-4.044 -0.759,-6.105 -0.077,-2.063 -0.116,-4.018 -0.116,-5.871 0,-1.852 0.039,-3.819 0.116,-5.908 0.082,-2.088 0.333,-4.135 0.759,-6.145 0.42,-2.012 1.043,-3.94 1.864,-5.792 0.818,-1.85 1.995,-3.461 3.53,-4.835 1.479,-1.376 3.188,-2.445 5.121,-3.212 1.93,-0.767 3.968,-1.337 6.114,-1.705 2.138,-0.368 4.324,-0.592 6.548,-0.673 2.223,-0.083 4.393,-0.121 6.507,-0.121 2.118,0 4.287,0.038 6.512,0.121 z m -18.365,34.195 c 0.24,1.723 0.813,3.273 1.719,4.652 0.582,0.898 1.232,1.627 1.954,2.186 0.721,0.558 1.488,0.968 2.315,1.231 0.822,0.263 1.728,0.438 2.712,0.52 0.984,0.077 2.039,0.116 3.153,0.116 1.173,0 2.248,-0.039 3.233,-0.116 0.983,-0.082 1.875,-0.257 2.672,-0.52 0.798,-0.264 1.542,-0.674 2.235,-1.231 0.695,-0.559 1.36,-1.287 1.996,-2.186 1.015,-1.488 1.611,-3.061 1.797,-4.734 0.188,-1.666 0.279,-3.617 0.279,-5.843 0,-1.216 -0.016,-2.305 -0.039,-3.262 -0.03,-0.953 -0.091,-1.84 -0.201,-2.661 -0.109,-0.822 -0.307,-1.601 -0.597,-2.344 -0.295,-0.744 -0.706,-1.511 -1.239,-2.31 -1.226,-1.797 -2.634,-2.926 -4.231,-3.378 -1.596,-0.451 -3.563,-0.675 -5.905,-0.675 -1.169,0 -2.232,0.038 -3.192,0.121 -0.96,0.081 -1.862,0.267 -2.711,0.554 -0.853,0.293 -1.627,0.705 -2.316,1.231 -0.694,0.534 -1.333,1.248 -1.915,2.146 -1.015,1.487 -1.611,3.036 -1.798,4.653 -0.185,1.615 -0.279,3.591 -0.279,5.923 0,2.229 0.118,4.203 0.358,5.927 z"
         style="fill:#fdcc12" /><path
         id="path264"
         d="m 705.26,57.864 c 0,0.477 -0.077,1.271 -0.235,2.379 -0.158,1.116 -0.636,2.224 -1.429,3.331 -0.795,1.117 -2.001,2.093 -3.616,2.938 -1.614,0.844 -3.878,1.271 -6.792,1.271 -1.062,0 -2.118,-0.056 -3.177,-0.16 -1.062,-0.104 -2.107,-0.345 -3.138,-0.717 -1.035,-0.368 -2.039,-0.923 -3.019,-1.666 -0.979,-0.736 -1.895,-1.716 -2.74,-2.937 L 661.02,33.983 c -0.211,-0.263 -0.453,-0.559 -0.717,-0.876 -0.265,-0.317 -0.53,-0.477 -0.794,-0.477 -0.104,0 -0.317,0.067 -0.635,0.198 -0.319,0.131 -0.478,0.596 -0.478,1.391 V 67.146 H 644.634 V 20.809 c 0,-1.796 0.345,-3.316 1.034,-4.563 0.686,-1.24 1.612,-2.258 2.777,-3.053 1.167,-0.794 2.504,-1.363 4.012,-1.704 1.51,-0.35 3.059,-0.52 4.647,-0.52 0.741,0 1.617,0.038 2.624,0.121 1.003,0.081 2.039,0.29 3.096,0.635 1.057,0.345 2.118,0.86 3.178,1.546 1.057,0.69 2.01,1.643 2.857,2.86 l 20.256,28.562 c 0.212,0.262 0.438,0.557 0.675,0.875 0.241,0.317 0.519,0.473 0.836,0.473 0.424,0 0.675,-0.17 0.753,-0.511 0.08,-0.35 0.119,-0.624 0.119,-0.836 v -33.09 h 13.761 v 46.26 z"
         style="fill:#fdcc12" /><path
         id="path266"
         d="m 722.498,67.132 c -1.167,0 -2.32,-0.094 -3.461,-0.278 -1.143,-0.188 -2.243,-0.73 -3.301,-1.627 -1.273,-1.055 -2.019,-2.155 -2.227,-3.295 -0.214,-1.134 -0.318,-2.362 -0.318,-3.688 V 20.159 c 0,-1.057 0.132,-2.142 0.395,-3.254 0.268,-1.108 0.931,-2.139 1.992,-3.092 1.057,-0.952 2.196,-1.561 3.417,-1.828 1.221,-0.264 2.336,-0.396 3.345,-0.396 h 39.933 v 13.515 h -27.454 c -0.531,0 -1.045,0.069 -1.55,0.201 -0.504,0.132 -0.91,0.325 -1.229,0.59 -0.422,0.372 -0.672,0.82 -0.754,1.346 -0.078,0.531 -0.117,0.981 -0.117,1.35 v 4.2 h 30.31 v 12.025 h -30.31 v 6.028 c 0,0.582 0.078,1.03 0.237,1.349 0.158,0.318 0.344,0.554 0.558,0.714 0.422,0.421 0.948,0.646 1.584,0.673 0.635,0.027 1.245,0.038 1.824,0.038 h 27.136 v 13.515 h -40.01 z"
         style="fill:#fdcc12" /></g><g
       id="g296"><path
         id="path270"
         d="m 158.181,91.816 h 8.083 c 0.111,0 0.223,-0.037 0.335,-0.111 0.074,-0.055 0.111,-0.147 0.111,-0.278 0,-0.092 -0.028,-0.162 -0.084,-0.209 -0.056,-0.046 -0.112,-0.089 -0.167,-0.125 -0.093,-0.057 -0.25,-0.116 -0.474,-0.182 -0.223,-0.065 -0.622,-0.2 -1.198,-0.405 l -3.177,-1.031 c -0.668,-0.223 -1.273,-0.487 -1.812,-0.794 -0.539,-0.307 -0.947,-0.693 -1.227,-1.157 -0.204,-0.354 -0.348,-0.763 -0.431,-1.227 -0.084,-0.465 -0.125,-0.884 -0.125,-1.256 0,-0.465 0.05,-0.924 0.152,-1.38 0.101,-0.454 0.281,-0.878 0.54,-1.27 0.388,-0.594 0.858,-0.975 1.412,-1.142 0.554,-0.167 1.219,-0.251 1.994,-0.251 h 9.82 v 3.772 h -7.991 c -0.092,0 -0.195,-0.004 -0.305,-0.015 -0.111,-0.008 -0.223,0.006 -0.333,0.042 -0.074,0.019 -0.134,0.043 -0.18,0.07 -0.046,0.027 -0.069,0.089 -0.069,0.182 0,0.111 0.028,0.186 0.083,0.223 0.055,0.037 0.129,0.074 0.224,0.111 0.166,0.056 0.287,0.099 0.361,0.126 0.074,0.027 0.139,0.055 0.195,0.084 0.056,0.027 0.121,0.056 0.195,0.083 0.075,0.028 0.195,0.069 0.363,0.125 l 3.731,1.255 c 0.78,0.26 1.453,0.529 2.02,0.809 0.566,0.278 1.026,0.678 1.38,1.199 0.352,0.501 0.565,1.021 0.64,1.561 0.075,0.539 0.111,0.968 0.111,1.283 0,0.538 -0.078,1.096 -0.236,1.672 -0.158,0.576 -0.487,1.069 -0.988,1.478 -0.389,0.317 -0.797,0.512 -1.223,0.587 -0.426,0.074 -0.824,0.111 -1.194,0.111 H 158.18 v -3.94 z"
         style="fill:#fdcc12" /><path
         id="path272"
         d="m 211.462,95.757 c -0.278,0 -0.597,-0.005 -0.957,-0.014 -0.36,-0.01 -0.744,-0.048 -1.149,-0.111 -0.407,-0.065 -0.823,-0.163 -1.247,-0.294 -0.425,-0.13 -0.822,-0.326 -1.19,-0.585 -0.609,-0.429 -1.072,-0.972 -1.385,-1.631 -0.314,-0.659 -0.471,-1.325 -0.471,-1.994 v -6.356 h -2.081 V 81 h 2.081 v -4.717 h 5.428 V 81 h 4.19 v 3.772 h -4.19 v 3.383 c 0,0.541 0.056,1.077 0.166,1.608 0.111,0.531 0.371,0.983 0.777,1.356 0.37,0.335 0.773,0.534 1.207,0.6 0.435,0.066 0.828,0.098 1.18,0.098 h 0.805 v 3.94 z"
         style="fill:#fdcc12" /><path
         id="path274"
         d="m 256.116,80.999 c 0.904,0 1.656,0.135 2.257,0.404 0.6,0.27 1.056,0.561 1.371,0.876 0.295,0.298 0.534,0.627 0.72,0.988 0.184,0.362 0.327,0.724 0.429,1.087 0.102,0.362 0.166,0.724 0.193,1.086 0.028,0.362 0.042,0.692 0.042,0.988 v 6.181 c 0,0.39 -0.037,0.794 -0.111,1.212 -0.074,0.417 -0.277,0.803 -0.611,1.155 -0.352,0.371 -0.75,0.594 -1.195,0.669 -0.445,0.074 -0.88,0.111 -1.307,0.111 h -8.67 c -0.464,0 -0.931,-0.037 -1.404,-0.111 -0.472,-0.073 -0.903,-0.296 -1.292,-0.666 -0.279,-0.258 -0.501,-0.563 -0.667,-0.915 -0.167,-0.352 -0.288,-0.716 -0.362,-1.096 -0.074,-0.379 -0.12,-0.754 -0.138,-1.124 -0.02,-0.369 -0.028,-0.702 -0.028,-0.999 0,-0.313 0.014,-0.643 0.042,-0.984 0.028,-0.341 0.084,-0.679 0.167,-1.012 0.083,-0.334 0.209,-0.647 0.376,-0.943 0.167,-0.296 0.399,-0.556 0.697,-0.776 0.408,-0.314 0.839,-0.501 1.294,-0.556 0.455,-0.055 0.895,-0.083 1.322,-0.083 h 6.459 v -0.229 c 0,-0.133 -0.014,-0.29 -0.041,-0.471 -0.028,-0.182 -0.107,-0.358 -0.236,-0.53 -0.204,-0.286 -0.462,-0.457 -0.777,-0.515 -0.315,-0.057 -0.611,-0.086 -0.888,-0.086 h -7.381 v -3.661 z m -4.309,8.987 c -0.093,0 -0.218,0.014 -0.378,0.041 -0.159,0.028 -0.303,0.098 -0.434,0.208 -0.093,0.093 -0.154,0.2 -0.183,0.319 -0.027,0.12 -0.041,0.245 -0.041,0.375 0,0.111 0.014,0.222 0.041,0.333 0.028,0.111 0.09,0.213 0.183,0.305 0.093,0.093 0.21,0.157 0.349,0.194 0.141,0.037 0.276,0.055 0.408,0.055 h 2.856 c 0.149,0 0.298,-0.014 0.449,-0.041 0.149,-0.027 0.27,-0.078 0.363,-0.152 0.131,-0.092 0.21,-0.203 0.238,-0.333 0.028,-0.129 0.042,-0.259 0.042,-0.388 v -0.916 z"
         style="fill:#fdcc12" /><path
         id="path276"
         d="m 301.052,100.527 h -5.439 l 2.304,-4.764 -6.993,-14.765 h 5.55 l 3.857,9.36 4.08,-9.36 h 5.438 z"
         style="fill:#fdcc12" /><path
         id="path278"
         d="m 382.349,95.757 c -0.314,0 -0.661,-0.019 -1.04,-0.057 -0.378,-0.035 -0.771,-0.114 -1.177,-0.236 -0.406,-0.12 -0.803,-0.296 -1.191,-0.528 -0.387,-0.232 -0.747,-0.544 -1.079,-0.935 -0.574,-0.667 -0.934,-1.456 -1.081,-2.366 -0.148,-0.909 -0.222,-1.931 -0.222,-3.062 0,-0.54 0.014,-1.082 0.042,-1.63 0.028,-0.548 0.098,-1.08 0.208,-1.602 0.111,-0.52 0.272,-1.021 0.484,-1.503 0.213,-0.481 0.513,-0.919 0.9,-1.308 0.573,-0.595 1.232,-0.999 1.979,-1.212 0.748,-0.214 1.565,-0.32 2.452,-0.32 h 7.909 v 3.717 h -5.384 c -0.462,0 -0.856,0.047 -1.179,0.14 -0.324,0.093 -0.592,0.224 -0.804,0.392 -0.214,0.168 -0.385,0.358 -0.513,0.573 -0.131,0.214 -0.232,0.441 -0.305,0.685 -0.094,0.298 -0.158,0.606 -0.195,0.922 -0.037,0.317 -0.055,0.662 -0.055,1.035 0,0.856 0.055,1.467 0.167,1.831 0.11,0.362 0.203,0.609 0.277,0.74 0.167,0.279 0.375,0.489 0.625,0.629 0.249,0.141 0.508,0.238 0.776,0.293 0.269,0.057 0.531,0.084 0.792,0.084 0.276,0 0.516,0 0.72,0 h 5.383 v 3.718 z"
         style="fill:#ffffff" /><path
         id="path280"
         d="m 432.334,80.874 c 0.61,0.027 1.203,0.089 1.778,0.182 0.575,0.093 1.116,0.24 1.625,0.445 0.509,0.204 0.967,0.482 1.375,0.835 0.463,0.408 0.824,0.886 1.083,1.434 0.26,0.548 0.455,1.101 0.586,1.657 0.128,0.557 0.206,1.095 0.234,1.614 0.028,0.521 0.042,0.965 0.042,1.337 0,0.37 -0.014,0.815 -0.042,1.337 -0.028,0.52 -0.106,1.058 -0.234,1.614 -0.131,0.557 -0.326,1.108 -0.586,1.656 -0.259,0.548 -0.62,1.026 -1.083,1.435 -0.408,0.353 -0.866,0.631 -1.375,0.834 -0.509,0.204 -1.05,0.354 -1.625,0.445 -0.575,0.093 -1.168,0.153 -1.778,0.182 -0.611,0.028 -1.204,0.042 -1.777,0.042 -0.592,0 -1.191,-0.014 -1.792,-0.042 -0.603,-0.028 -1.191,-0.089 -1.765,-0.182 -0.575,-0.092 -1.118,-0.241 -1.625,-0.445 -0.51,-0.203 -0.969,-0.481 -1.376,-0.834 -0.462,-0.408 -0.823,-0.887 -1.083,-1.435 -0.26,-0.548 -0.453,-1.1 -0.584,-1.656 -0.13,-0.557 -0.209,-1.095 -0.236,-1.614 -0.027,-0.521 -0.041,-0.967 -0.041,-1.337 0,-0.372 0.014,-0.815 0.041,-1.337 0.027,-0.52 0.106,-1.058 0.236,-1.614 0.131,-0.557 0.324,-1.109 0.584,-1.657 0.26,-0.548 0.621,-1.025 1.083,-1.434 0.407,-0.353 0.866,-0.631 1.376,-0.835 0.507,-0.205 1.05,-0.353 1.625,-0.445 0.573,-0.093 1.162,-0.154 1.765,-0.182 0.601,-0.027 1.2,-0.042 1.792,-0.042 0.573,0 1.166,0.015 1.777,0.042 z m -4.559,9.307 c 0.121,0.382 0.236,0.646 0.349,0.796 0.019,0.039 0.079,0.113 0.182,0.225 0.102,0.113 0.252,0.224 0.447,0.335 0.195,0.113 0.438,0.215 0.728,0.308 0.289,0.095 0.646,0.141 1.076,0.141 0.744,0 1.299,-0.121 1.662,-0.364 0.364,-0.242 0.61,-0.455 0.741,-0.644 0.224,-0.315 0.373,-0.693 0.448,-1.131 0.074,-0.438 0.111,-0.928 0.111,-1.468 0,-0.782 -0.052,-1.369 -0.154,-1.762 -0.102,-0.391 -0.229,-0.689 -0.377,-0.895 -0.148,-0.186 -0.4,-0.392 -0.754,-0.615 -0.356,-0.224 -0.915,-0.335 -1.678,-0.335 -0.765,0 -1.323,0.111 -1.678,0.335 -0.355,0.224 -0.605,0.43 -0.755,0.615 -0.093,0.149 -0.206,0.409 -0.335,0.782 -0.131,0.373 -0.196,0.997 -0.196,1.874 0.001,0.819 0.061,1.422 0.183,1.803 z"
         style="fill:#ffffff" /><path
         id="path282"
         d="m 470.57,83.644 c 0,-0.277 0.027,-0.579 0.082,-0.904 0.057,-0.325 0.233,-0.627 0.53,-0.905 0.202,-0.204 0.442,-0.362 0.722,-0.474 0.276,-0.11 0.565,-0.195 0.861,-0.25 0.297,-0.055 0.588,-0.088 0.875,-0.098 0.288,-0.009 0.541,-0.014 0.766,-0.014 h 5.113 c 0.852,0 1.699,0.07 2.542,0.209 0.843,0.139 1.644,0.506 2.404,1.099 0.407,0.336 0.731,0.688 0.973,1.06 0.24,0.37 0.426,0.751 0.556,1.142 0.13,0.39 0.212,0.771 0.25,1.142 0.035,0.37 0.055,0.714 0.055,1.029 v 9.078 h -5.427 v -7.501 c 0,-0.521 -0.038,-0.988 -0.113,-1.407 -0.073,-0.418 -0.242,-0.795 -0.503,-1.131 -0.243,-0.315 -0.541,-0.542 -0.897,-0.683 -0.353,-0.139 -0.812,-0.208 -1.372,-0.208 h -0.98 c -0.111,0 -0.238,0.014 -0.378,0.041 -0.14,0.027 -0.266,0.088 -0.379,0.181 -0.148,0.13 -0.228,0.266 -0.236,0.405 -0.01,0.141 -0.015,0.283 -0.015,0.432 v 9.871 h -5.428 V 83.644 Z"
         style="fill:#ffffff" /><path
         id="path284"
         d="m 518.145,83.644 c 0,-0.277 0.027,-0.579 0.082,-0.904 0.056,-0.325 0.232,-0.627 0.528,-0.905 0.204,-0.204 0.445,-0.362 0.723,-0.474 0.278,-0.11 0.565,-0.195 0.862,-0.25 0.297,-0.055 0.586,-0.088 0.875,-0.098 0.287,-0.009 0.541,-0.014 0.764,-0.014 h 5.113 c 0.852,0 1.7,0.07 2.545,0.209 0.842,0.139 1.643,0.506 2.402,1.099 0.407,0.336 0.732,0.688 0.973,1.06 0.241,0.37 0.426,0.751 0.556,1.142 0.13,0.39 0.214,0.771 0.25,1.142 0.037,0.37 0.056,0.714 0.056,1.029 v 9.078 h -5.428 v -7.501 c 0,-0.521 -0.038,-0.988 -0.112,-1.407 -0.074,-0.418 -0.243,-0.795 -0.503,-1.131 -0.243,-0.315 -0.543,-0.542 -0.896,-0.683 -0.356,-0.139 -0.812,-0.208 -1.373,-0.208 h -0.981 c -0.112,0 -0.236,0.014 -0.377,0.041 -0.14,0.027 -0.266,0.088 -0.378,0.181 -0.149,0.13 -0.229,0.266 -0.239,0.405 -0.009,0.141 -0.014,0.283 -0.014,0.432 v 9.871 h -5.427 V 83.644 Z"
         style="fill:#ffffff" /><path
         id="path286"
         d="m 571.34,95.757 c -0.554,0 -1.08,-0.01 -1.58,-0.029 -0.498,-0.017 -0.968,-0.087 -1.411,-0.208 -0.442,-0.121 -0.851,-0.311 -1.22,-0.57 -0.368,-0.26 -0.701,-0.632 -0.996,-1.114 -0.314,-0.538 -0.518,-1.22 -0.61,-2.046 -0.092,-0.826 -0.138,-1.908 -0.138,-3.245 0,-0.666 0,-1.308 0,-1.921 0,-0.611 0.032,-1.183 0.097,-1.711 0.064,-0.529 0.181,-1.017 0.347,-1.463 0.166,-0.445 0.416,-0.835 0.75,-1.17 0.332,-0.352 0.754,-0.625 1.263,-0.82 0.508,-0.195 1.067,-0.34 1.679,-0.433 0.61,-0.092 1.251,-0.147 1.927,-0.166 0.676,-0.019 1.363,-0.028 2.066,-0.028 1.499,0 2.737,0.047 3.719,0.14 0.979,0.094 1.766,0.381 2.358,0.865 0.351,0.278 0.632,0.624 0.844,1.033 0.214,0.409 0.376,0.838 0.487,1.284 0.109,0.446 0.18,0.897 0.207,1.353 0.027,0.456 0.042,0.889 0.042,1.298 0,0.484 -0.043,0.973 -0.126,1.467 -0.082,0.493 -0.337,0.906 -0.763,1.241 -0.241,0.204 -0.478,0.326 -0.708,0.362 -0.231,0.038 -0.476,0.056 -0.735,0.056 h -8.024 c -0.02,0.204 -0.006,0.416 0.041,0.639 0.046,0.222 0.115,0.407 0.208,0.554 0.24,0.371 0.587,0.579 1.04,0.625 0.452,0.047 0.921,0.068 1.402,0.068 h 7.131 v 3.94 h -9.297 z m 3.511,-9.266 c 0.391,0 0.637,-0.095 0.739,-0.285 0.102,-0.19 0.152,-0.361 0.152,-0.515 0,-0.21 -0.065,-0.409 -0.195,-0.6 -0.131,-0.19 -0.398,-0.333 -0.808,-0.428 -0.224,-0.038 -0.482,-0.066 -0.78,-0.086 -0.296,-0.02 -0.519,-0.029 -0.667,-0.029 -0.315,0 -0.66,0.016 -1.032,0.044 -0.37,0.028 -0.657,0.1 -0.861,0.213 -0.28,0.153 -0.455,0.377 -0.53,0.672 -0.074,0.295 -0.093,0.633 -0.055,1.014 z"
         style="fill:#ffffff" /><path
         id="path288"
         d="m 618.166,95.757 c -0.315,0 -0.66,-0.019 -1.04,-0.057 -0.379,-0.035 -0.769,-0.114 -1.177,-0.236 -0.406,-0.12 -0.803,-0.296 -1.19,-0.528 -0.387,-0.232 -0.747,-0.544 -1.08,-0.935 -0.573,-0.667 -0.932,-1.456 -1.079,-2.366 -0.148,-0.909 -0.222,-1.931 -0.222,-3.062 0,-0.54 0.014,-1.082 0.041,-1.63 0.027,-0.548 0.098,-1.08 0.208,-1.602 0.111,-0.52 0.271,-1.021 0.484,-1.503 0.212,-0.481 0.512,-0.919 0.9,-1.308 0.572,-0.595 1.232,-0.999 1.98,-1.212 0.747,-0.214 1.563,-0.32 2.451,-0.32 h 7.907 v 3.717 h -5.382 c -0.463,0 -0.856,0.047 -1.18,0.14 -0.324,0.093 -0.593,0.224 -0.805,0.392 -0.213,0.168 -0.385,0.358 -0.514,0.573 -0.13,0.214 -0.23,0.441 -0.305,0.685 -0.093,0.298 -0.158,0.606 -0.194,0.922 -0.037,0.317 -0.056,0.662 -0.056,1.035 0,0.856 0.056,1.467 0.167,1.831 0.111,0.362 0.203,0.609 0.277,0.74 0.165,0.279 0.374,0.489 0.624,0.629 0.248,0.141 0.509,0.238 0.777,0.293 0.268,0.057 0.53,0.084 0.79,0.084 0.276,0 0.518,0 0.723,0 h 5.383 v 3.718 z"
         style="fill:#ffffff" /><path
         id="path290"
         d="m 665.798,95.757 c -0.277,0 -0.598,-0.005 -0.958,-0.014 -0.358,-0.01 -0.742,-0.048 -1.148,-0.111 -0.407,-0.065 -0.822,-0.163 -1.246,-0.294 -0.426,-0.13 -0.822,-0.326 -1.19,-0.585 -0.609,-0.429 -1.07,-0.972 -1.385,-1.631 -0.315,-0.659 -0.471,-1.325 -0.471,-1.994 v -6.356 h -2.081 V 81 h 2.081 v -4.717 h 5.427 V 81 h 4.19 v 3.772 h -4.19 v 3.383 c 0,0.541 0.056,1.077 0.167,1.608 0.111,0.531 0.37,0.983 0.777,1.356 0.37,0.335 0.772,0.534 1.207,0.6 0.434,0.066 0.829,0.098 1.179,0.098 h 0.806 v 3.94 z"
         style="fill:#ffffff" /><path
         id="path292"
         d="m 705.911,95.757 c -0.555,0 -1.08,-0.01 -1.579,-0.029 -0.498,-0.017 -0.97,-0.087 -1.413,-0.208 -0.442,-0.121 -0.85,-0.311 -1.219,-0.57 -0.368,-0.26 -0.7,-0.632 -0.997,-1.114 -0.312,-0.538 -0.517,-1.22 -0.608,-2.046 -0.094,-0.826 -0.14,-1.908 -0.14,-3.245 0,-0.666 0,-1.308 0,-1.921 0,-0.611 0.032,-1.183 0.098,-1.711 0.064,-0.529 0.181,-1.017 0.347,-1.463 0.166,-0.445 0.417,-0.835 0.749,-1.17 0.332,-0.352 0.754,-0.625 1.264,-0.82 0.508,-0.195 1.066,-0.34 1.678,-0.433 0.61,-0.092 1.253,-0.147 1.927,-0.166 0.676,-0.019 1.364,-0.028 2.068,-0.028 1.497,0 2.736,0.047 3.717,0.14 0.979,0.094 1.766,0.381 2.357,0.865 0.352,0.278 0.634,0.624 0.847,1.033 0.213,0.409 0.375,0.838 0.486,1.284 0.11,0.446 0.179,0.897 0.206,1.353 0.027,0.456 0.042,0.889 0.042,1.298 0,0.484 -0.043,0.973 -0.124,1.467 -0.084,0.493 -0.338,0.906 -0.765,1.241 -0.239,0.204 -0.476,0.326 -0.708,0.362 -0.231,0.038 -0.476,0.056 -0.735,0.056 h -8.024 c -0.019,0.204 -0.005,0.416 0.041,0.639 0.046,0.222 0.116,0.407 0.208,0.554 0.241,0.371 0.587,0.579 1.04,0.625 0.454,0.047 0.922,0.068 1.402,0.068 h 7.131 v 3.94 h -9.296 z m 3.51,-9.266 c 0.391,0 0.637,-0.095 0.739,-0.285 0.102,-0.19 0.153,-0.361 0.153,-0.515 0,-0.21 -0.066,-0.409 -0.196,-0.6 -0.129,-0.19 -0.397,-0.333 -0.808,-0.428 -0.223,-0.038 -0.482,-0.066 -0.78,-0.086 -0.296,-0.02 -0.519,-0.029 -0.667,-0.029 -0.315,0 -0.66,0.016 -1.03,0.044 -0.371,0.028 -0.659,0.1 -0.863,0.213 -0.278,0.153 -0.454,0.377 -0.529,0.672 -0.074,0.295 -0.093,0.633 -0.056,1.014 z"
         style="fill:#ffffff" /><path
         id="path294"
         d="M 762.567,76.282 V 92.64 c 0,0.315 -0.028,0.677 -0.085,1.084 -0.055,0.408 -0.185,0.752 -0.387,1.03 -0.167,0.241 -0.354,0.427 -0.557,0.557 -0.203,0.13 -0.416,0.228 -0.639,0.292 -0.222,0.064 -0.449,0.107 -0.681,0.124 -0.23,0.02 -0.447,0.029 -0.651,0.029 h -7.302 c -1.152,0 -2.12,-0.241 -2.911,-0.725 -0.788,-0.481 -1.369,-1.188 -1.739,-2.116 -0.296,-0.705 -0.482,-1.472 -0.557,-2.297 -0.074,-0.826 -0.111,-1.694 -0.111,-2.604 0,-0.91 0.057,-1.781 0.168,-2.616 0.11,-0.837 0.416,-1.606 0.919,-2.312 0.314,-0.446 0.677,-0.808 1.085,-1.085 0.407,-0.279 0.831,-0.492 1.267,-0.642 0.437,-0.147 0.872,-0.244 1.309,-0.291 0.437,-0.047 0.85,-0.07 1.24,-0.07 h 4.203 v -4.717 h 5.429 z m -7.838,8.489 c -0.447,0 -0.817,0.093 -1.105,0.28 -0.291,0.186 -0.511,0.39 -0.659,0.613 -0.262,0.373 -0.426,0.807 -0.491,1.302 -0.065,0.493 -0.097,0.945 -0.097,1.354 0,0.708 0.031,1.255 0.097,1.636 0.065,0.382 0.164,0.693 0.294,0.936 0.261,0.485 0.595,0.788 0.995,0.91 0.402,0.12 0.724,0.182 0.967,0.182 h 1.316 c 0.263,0 0.454,-0.029 0.575,-0.084 0.12,-0.056 0.199,-0.103 0.237,-0.14 0.148,-0.131 0.233,-0.304 0.252,-0.518 0.02,-0.214 0.028,-0.377 0.028,-0.49 v -5.981 z"
         style="fill:#ffffff" /></g></g><g
     style="stroke-width:0.73024225"
     transform="matrix(1.3694085,0,0,1.3694085,201.15174,-10.054197)"
     id="g312"><path
       id="path300"
       d="m 26.514,55.907 c 0,26.104 21.236,47.342 47.338,47.342 26.104,0 47.342,-21.237 47.342,-47.342 0,-26.103 -21.238,-47.339 -47.342,-47.339 -26.102,0 -47.338,21.237 -47.338,47.339 z m 3.802,0 c 0,-24.006 19.53,-43.536 43.536,-43.536 24.007,0 43.539,19.53 43.539,43.536 0,24.007 -19.532,43.539 -43.539,43.539 -24.005,0 -43.536,-19.532 -43.536,-43.539 z"
       style="fill:#fdcc12;stroke-width:0.73024225" /><path
       id="path302"
       d="m 111.149,18.224 c 20.657,20.659 20.657,54.274 0,74.933 l 3.227,3.227 c 22.436,-22.438 22.436,-58.947 0,-81.385 z"
       style="fill:#fdcc12;stroke-width:0.73024225" /><path
       id="path304"
       d="M 33.314,96.656 36.541,93.43 C 15.882,72.77 15.881,39.156 36.539,18.496 L 33.313,15.27 C 10.876,37.71 10.876,74.219 33.314,96.656 Z"
       style="fill:#fdcc12;stroke-width:0.73024225" /><path
       id="path306"
       d="m 118.454,11.105 c 24.613,24.613 24.613,64.662 0,89.274 l 3.764,3.765 c 12.94,-12.938 20.064,-30.128 20.064,-48.401 0,-18.273 -7.124,-35.463 -20.064,-48.401 z"
       style="fill:#fdcc12;stroke-width:0.73024225" /><path
       id="path308"
       d="m 25.431,104.421 3.764,-3.765 C 4.583,76.042 4.583,35.994 29.195,11.382 L 25.431,7.617 c -26.688,26.688 -26.688,70.113 0,96.804 z"
       style="fill:#fdcc12;stroke-width:0.73024225" /><path
       id="path310"
       d="m 97.973,36.177 c 1.595,2.627 2.678,5.604 3.251,8.926 -1.725,0.516 -3.429,0.772 -5.112,0.772 -2.862,0 -5.869,-0.758 -9.023,-2.276 v -0.628 c 0,-2.949 -4.413,-4.425 -13.233,-4.425 -9.118,0 -13.676,1.474 -13.676,4.422 v 0.628 c -3.017,1.729 -5.996,2.593 -8.934,2.593 -1.744,0 -3.477,-0.321 -5.201,-0.968 0.548,-3.171 1.636,-6.186 3.266,-9.044 3.727,-1.385 7.604,-2.417 11.636,-3.099 4.031,-0.683 8.214,-1.024 12.549,-1.024 4.491,0 8.776,0.342 12.856,1.024 4.079,0.682 7.953,1.714 11.621,3.099 z m -37.794,9.094 v 1.074 c 0,2.323 -0.682,4.012 -2.043,5.067 -1.362,1.055 -3.541,1.582 -6.538,1.582 -2.156,0 -3.62,-0.352 -4.394,-1.056 -0.774,-0.703 -1.16,-2.04 -1.16,-4.008 v -1.245 c 1.978,0.646 3.771,0.969 5.378,0.969 3.017,10e-4 5.935,-0.793 8.757,-2.383 z m 9.005,1.651 h 8.9 v -3.979 h 6.492 v 5.502 l 7.722,12.419 c 1.129,1.809 1.87,3.288 2.222,4.438 0.351,1.151 0.527,2.67 0.527,4.558 v 6.902 H 52.222 V 69.86 c 0,-2.93 0.976,-5.968 2.925,-9.114 l 7.545,-12.301 v -5.502 h 6.492 z m -3.769,4.712 v 2.617 h 3.665 v -2.617 z m 0,4.397 v 2.618 h 3.665 v -2.618 z m 0,4.398 v 2.513 h 3.665 v -2.513 z m 6.177,-8.795 v 2.617 h 3.665 v -2.617 z m 0,4.397 v 2.618 h 3.665 v -2.618 z m 0,4.398 v 2.513 h 3.665 v -2.513 z m 6.178,-8.795 v 2.617 h 3.664 v -2.617 z m 0,4.397 v 2.618 h 3.664 v -2.618 z m 0,4.398 v 2.513 h 3.664 v -2.513 z m 23.454,-13.861 v 1.397 c 0,1.805 -0.388,3.041 -1.162,3.71 -0.774,0.671 -2.208,1.005 -4.304,1.005 -2.938,0 -5.119,-0.516 -6.54,-1.546 -1.42,-1.031 -2.13,-2.616 -2.13,-4.756 v -1.313 c 2.781,1.518 5.78,2.275 8.993,2.275 1.841,10e-4 3.556,-0.256 5.143,-0.772 z"
       style="fill:#fdcc12;stroke-width:0.73024225" /></g></svg>