<?xml version="1.0" encoding="UTF-8" standalone="no"?>
<!DOCTYPE svg PUBLIC "-//W3C//DTD SVG 1.1//EN" "http://www.w3.org/Graphics/SVG/1.1/DTD/svg11.dtd">
<svg width="100%" height="100%" viewBox="0 0 202 48" version="1.1" xmlns="http://www.w3.org/2000/svg" xmlns:xlink="http://www.w3.org/1999/xlink" xml:space="preserve" xmlns:serif="http://www.serif.com/" style="fill-rule:evenodd;clip-rule:evenodd;stroke-linejoin:round;stroke-miterlimit:2;">
    <g transform="matrix(1,0,0,1,2,-3.83572)">
        <g>
            <path d="M119.9,16.6L127.2,16.6L127.2,20.5L131.2,20.5L131.2,25L127.2,25L127.2,30C127.2,30.4 127.3,30.7 127.6,31C127.9,31.3 128.3,31.5 128.7,31.5L131.2,31.6L131.2,36L123.1,36C122.2,36 121.3,35.7 120.7,35C120.1,34.3 119.9,33.4 119.9,32.5L119.9,16.6Z" style="fill:rgb(29,29,27);fill-rule:nonzero;"/>
            <path d="M8.3,28.7L8.3,31.2C8.3,31.2 8.3,33.9 10.4,33.9C12.5,33.9 12.5,31.2 12.5,31.2L12.5,30.7L20.4,30.7L20.4,31.3C20.5,32.5 19.9,33.7 19,34.5C17.7,35.6 15.2,36.4 10.4,36.4C6.8,36.4 4.6,36.1 3,35.2C-0.2,33.3 0,29.9 0,28.2C0,26.6 0,23.8 1.9,22C3.3,20.7 5.7,20 10.4,20C14.7,20 17.1,20.5 18.5,21.7C20.8,23.6 20.5,26.6 20.5,28.2L20.5,28.7L8.3,28.7ZM8.3,25.8L12.5,25.8L12.5,24.9C12.5,24.9 12.5,22.6 10.4,22.6C8.3,22.6 8.3,24.9 8.3,24.9L8.3,25.8Z" style="fill:rgb(29,29,27);fill-rule:nonzero;"/>
        </g>
    </g>
    <g transform="matrix(1,0,0,1,2,-3.83572)">
        <path d="M36.7,26.8L40.7,20.5L50,20.5L45.4,28.2L50,35.9L40.8,35.9L36.7,29.6L32.7,35.9L23.5,35.9L28,28.2L23.5,20.5L32.7,20.5L36.7,26.8Z" style="fill:rgb(29,29,27);fill-rule:nonzero;"/>
    </g>
    <g transform="matrix(1,0,0,1,2,-3.83572)">
        <path d="M61.7,34.4L61.7,40.7L54,40.7L54,20.5L61.7,20.5L61.7,22.4C61.7,22.4 62.4,20 67.4,20C72,20 73.1,22.1 73.1,22.1C73.1,22.1 74.1,23.2 74.2,28C74.3,32.8 72.8,34.1 72.8,34.1C72.8,34.1 71.5,36.2 67.5,36.2C62.9,36.3 61.7,34.3 61.7,34.4M61.7,30.3C61.9,31.4 62.4,32.8 63.8,32.8C66.1,32.8 66.1,29 66.1,29L66.1,27.3C66.1,27.3 66.3,23.6 63.8,23.6C62.7,23.6 61.9,24.4 61.7,25.5L61.7,30.3Z" style="fill:rgb(29,29,27);fill-rule:nonzero;"/>
        <path d="M86.5,28.7L86.5,31.2C86.5,31.2 86.5,33.9 88.6,33.9C90.7,33.9 90.7,31.2 90.7,31.2L90.7,30.7L98.6,30.7L98.6,31.3C98.7,32.5 98.1,33.7 97.2,34.5C95.9,35.6 93.4,36.4 88.6,36.4C85,36.4 82.8,36.1 81.2,35.2C78,33.3 78.2,29.9 78.2,28.2C78.2,26.6 78.2,23.9 80.1,22.1C81.5,20.8 83.9,20.1 88.6,20.1C92.9,20.1 95.3,20.6 96.7,21.8C99,23.7 98.6,26.7 98.7,28.3L98.7,28.8L86.5,28.7ZM86.5,25.8L90.7,25.8L90.7,24.9C90.7,24.9 90.7,22.6 88.6,22.6C86.5,22.6 86.5,24.9 86.5,24.9L86.5,25.8Z" style="fill:rgb(29,29,27);fill-rule:nonzero;"/>
        <path d="M111,28.1L111,36L103.2,36L103.2,20.6L111,20.6L111,22.8C111.5,22 112.2,21.2 113.1,20.7C114.1,20.3 115.3,20 116.4,20L116.1,25.6C116,25.6 111.3,24.9 111,28.1" style="fill:rgb(29,29,27);fill-rule:nonzero;"/>
    </g>
    <g transform="matrix(0.597525,0,0,0.757816,85.4457,5.88582)">
        <g transform="matrix(12,0,0,12,32.2323,46.4111)">
            <path d="M0.075,0L0.369,0L0.369,-0.257C0.369,-0.334 0.409,-0.369 0.457,-0.369C0.505,-0.369 0.532,-0.336 0.532,-0.287L0.532,0L0.826,0L0.826,-0.267C0.826,-0.343 0.863,-0.369 0.912,-0.369C0.968,-0.369 0.989,-0.327 0.989,-0.28L0.989,0L1.283,0L1.283,-0.33C1.283,-0.47 1.148,-0.521 1.037,-0.521C0.918,-0.521 0.849,-0.479 0.806,-0.41C0.779,-0.484 0.681,-0.521 0.587,-0.521C0.473,-0.521 0.399,-0.47 0.355,-0.402L0.353,-0.402L0.349,-0.502L0.069,-0.502C0.072,-0.46 0.075,-0.39 0.075,-0.309L0.075,0Z" style="fill-rule:nonzero;"/>
        </g>
        <g transform="matrix(12,0,0,12,48.5283,46.4111)">
            <path d="M0.046,-0.251C0.046,-0.047 0.203,0.019 0.445,0.019C0.687,0.019 0.844,-0.047 0.844,-0.251C0.844,-0.455 0.687,-0.521 0.445,-0.521C0.203,-0.521 0.046,-0.455 0.046,-0.251ZM0.35,-0.251C0.35,-0.328 0.374,-0.393 0.445,-0.393C0.516,-0.393 0.54,-0.328 0.54,-0.251C0.54,-0.174 0.516,-0.109 0.445,-0.109C0.374,-0.109 0.35,-0.174 0.35,-0.251Z" style="fill-rule:nonzero;"/>
        </g>
        <g transform="matrix(12,0,0,12,59.2083,46.4111)">
            <path d="M0.356,-0.251C0.356,-0.331 0.383,-0.387 0.453,-0.387C0.514,-0.387 0.551,-0.332 0.551,-0.251C0.551,-0.185 0.535,-0.115 0.454,-0.115C0.372,-0.115 0.356,-0.185 0.356,-0.251ZM0.561,0L0.839,0L0.839,-0.722L0.545,-0.722L0.545,-0.441C0.49,-0.498 0.408,-0.521 0.33,-0.521C0.153,-0.521 0.052,-0.424 0.052,-0.249C0.052,-0.075 0.159,0.019 0.343,0.019C0.425,0.019 0.49,-0.003 0.557,-0.07L0.561,0Z" style="fill-rule:nonzero;"/>
        </g>
        <g transform="matrix(12,0,0,12,70.1763,46.4111)">
            <path d="M0.812,-0.211L0.812,-0.238C0.812,-0.46 0.618,-0.521 0.426,-0.521C0.204,-0.521 0.04,-0.443 0.04,-0.248C0.04,-0.058 0.199,0.019 0.434,0.019C0.693,0.019 0.796,-0.061 0.805,-0.145L0.517,-0.145C0.509,-0.113 0.486,-0.087 0.429,-0.087C0.362,-0.087 0.328,-0.126 0.328,-0.211L0.812,-0.211ZM0.328,-0.307C0.328,-0.373 0.363,-0.415 0.426,-0.415C0.493,-0.415 0.524,-0.372 0.524,-0.307L0.328,-0.307Z" style="fill-rule:nonzero;"/>
        </g>
    </g>
    <g transform="matrix(0.874436,0,0,0.874436,-41.7522,1.3222)">
        <g>
            <g transform="matrix(0.484432,0,0,0.484432,192.529,-370.944)">
                <path d="M49.515,817.908C49.515,844.012 70.75,865.249 96.853,865.249C122.956,865.249 144.194,844.012 144.194,817.908C144.194,791.805 122.956,770.569 96.853,770.569C70.75,770.569 49.515,791.805 49.515,817.908ZM53.317,817.908C53.317,793.902 72.847,774.372 96.853,774.372C120.859,774.372 140.391,793.902 140.391,817.908C140.391,841.915 120.859,861.447 96.853,861.447C72.847,861.447 53.317,841.915 53.317,817.908Z" style="fill:rgb(235,102,8);fill-rule:nonzero;"/>
            </g>
            <g transform="matrix(0.484432,0,0,0.484432,192.529,-370.944)">
                <path d="M134.149,780.224C154.806,800.883 154.806,834.498 134.149,855.157L137.376,858.383C159.812,835.946 159.812,799.436 137.376,776.998L134.149,780.224Z" style="fill:rgb(235,102,8);fill-rule:nonzero;"/>
            </g>
            <g transform="matrix(0.484432,0,0,0.484432,192.529,-370.944)">
                <path d="M56.315,858.657L59.541,855.431C38.883,834.771 38.882,801.157 59.54,780.498L56.313,777.272C33.876,799.71 33.876,836.219 56.315,858.657Z" style="fill:rgb(235,102,8);fill-rule:nonzero;"/>
            </g>
            <g transform="matrix(0.484432,0,0,0.484432,192.529,-370.944)">
                <path d="M141.453,773.106C166.066,797.719 166.066,837.768 141.453,862.38L145.217,866.145C158.158,853.207 165.282,836.017 165.282,817.744C165.282,799.47 158.158,782.281 145.217,769.342L141.453,773.106Z" style="fill:rgb(235,102,8);fill-rule:nonzero;"/>
            </g>
            <g transform="matrix(0.484432,0,0,0.484432,192.529,-370.944)">
                <path d="M48.432,866.421L52.196,862.657C27.584,838.042 27.583,797.995 52.196,773.382L48.432,769.618C21.743,796.305 21.743,839.731 48.432,866.421Z" style="fill:rgb(235,102,8);fill-rule:nonzero;"/>
            </g>
            <g transform="matrix(0.484432,0,0,0.484432,192.529,-370.944)">
                <path d="M120.972,798.177C122.567,800.804 123.65,803.781 124.223,807.103C122.499,807.619 120.794,807.875 119.111,807.875C116.249,807.875 113.242,807.118 110.089,805.599L110.089,804.971C110.089,802.022 105.676,800.546 96.855,800.546C87.738,800.546 83.18,802.02 83.18,804.968L83.18,805.596C80.163,807.326 77.184,808.189 74.246,808.189C72.501,808.189 70.769,807.868 69.044,807.221C69.593,804.05 70.681,801.036 72.31,798.177C76.037,796.792 79.914,795.76 83.946,795.079C87.977,794.396 92.16,794.054 96.495,794.054C100.986,794.054 105.271,794.396 109.351,795.079C113.43,795.76 117.304,796.792 120.972,798.177ZM83.18,807.272L83.18,808.346C83.18,810.669 82.498,812.358 81.137,813.414C79.775,814.468 77.596,814.996 74.599,814.996C72.443,814.996 70.978,814.644 70.205,813.94C69.431,813.237 69.044,811.9 69.044,809.932L69.044,808.687C71.022,809.333 72.816,809.656 74.422,809.656C77.439,809.656 80.358,808.862 83.18,807.272ZM92.185,808.922L101.084,808.922L101.084,804.944L107.576,804.944L107.576,810.446L115.297,822.865C116.426,824.673 117.167,826.153 117.519,827.303C117.869,828.455 118.045,829.973 118.045,831.861L118.045,838.763L75.222,838.763L75.222,831.861C75.222,828.931 76.198,825.893 78.147,822.747L85.692,810.446L85.692,804.944L92.185,804.944L92.185,808.922ZM88.415,813.634L88.415,816.251L92.08,816.251L92.08,813.634L88.415,813.634ZM88.415,818.032L88.415,820.65L92.08,820.65L92.08,818.032L88.415,818.032ZM88.415,822.429L88.415,824.942L92.08,824.942L92.08,822.429L88.415,822.429ZM94.593,813.634L94.593,816.251L98.257,816.251L98.257,813.634L94.593,813.634ZM94.593,818.032L94.593,820.65L98.257,820.65L98.257,818.032L94.593,818.032ZM94.593,822.429L94.593,824.942L98.257,824.942L98.257,822.429L94.593,822.429ZM100.77,813.634L100.77,816.251L104.435,816.251L104.435,813.634L100.77,813.634ZM100.77,818.032L100.77,820.65L104.435,820.65L104.435,818.032L100.77,818.032ZM100.77,822.429L100.77,824.942L104.435,824.942L104.435,822.429L100.77,822.429ZM124.223,808.569L124.223,809.966C124.223,811.771 123.835,813.007 123.062,813.676C122.288,814.347 120.853,814.681 118.757,814.681C115.819,814.681 113.638,814.165 112.219,813.135C110.799,812.104 110.089,810.519 110.089,808.379L110.089,807.066C112.87,808.583 115.868,809.341 119.081,809.341C120.921,809.341 122.636,809.084 124.223,808.569Z" style="fill:rgb(235,102,8);fill-rule:nonzero;"/>
            </g>
        </g>
    </g>
</svg>
