<?xml version="1.0" encoding="utf-8"?>
<!-- Generator: Adobe Illustrator 16.0.0, SVG Export Plug-In . SVG Version: 6.00 Build 0)  -->
<!DOCTYPE svg PUBLIC "-//W3C//DTD SVG 1.1//EN" "http://www.w3.org/Graphics/SVG/1.1/DTD/svg11.dtd">
<svg version="1.1" id="Layer_1" xmlns="http://www.w3.org/2000/svg" xmlns:xlink="http://www.w3.org/1999/xlink" x="0px" y="0px"
	 width="149.25px" height="35px" viewBox="0 0 149.25 35" enable-background="new 0 0 149.25 35" xml:space="preserve">
<g>
	<g>
		<g>
			<path d="M35.581,23.727c0-3.92,2.271-5.841,5.123-5.841c2.851,0,4.086,1.525,4.574,3.554l-2.348,0.686
				c-0.366-1.295-0.915-2.182-2.241-2.182c-1.708,0-2.623,1.451-2.623,3.783c0,2.379,0.946,3.873,2.653,3.873
				c1.327,0,1.982-0.841,2.379-2.379l2.333,0.52c-0.549,2.271-1.891,3.857-4.727,3.857C37.761,29.598,35.581,27.704,35.581,23.727z
				 M46.874,29.382V18.1h2.439v11.282H46.874z M50.737,25.325c0-3.185,2.181-4.236,4.163-4.236c1.967,0,4.148,1.054,4.148,4.236
				c0,3.157-2.181,4.226-4.148,4.226C52.933,29.55,50.737,28.482,50.737,25.325z M56.592,25.341c0-1.354-0.473-2.454-1.693-2.454
				c-1.174,0-1.707,0.991-1.707,2.454c0,1.354,0.457,2.486,1.707,2.486C56.059,27.827,56.592,26.82,56.592,25.341z M60.368,27.188
				v-5.933h2.455v5.216c0,0.729,0.274,1.129,0.96,1.129c0.656,0,1.219-0.353,1.769-0.824v-5.521h2.455v8.127h-2.455v-1.266
				c-0.488,0.625-1.388,1.434-2.805,1.434C61.358,29.55,60.368,28.864,60.368,27.188z M69.431,25.389
				c0-2.806,1.295-4.302,3.156-4.302c1.097,0,1.892,0.396,2.47,1.188v-4.178h2.455v9.301c0,0.978,0.062,1.57,0.244,1.98H75.24
				c-0.106-0.197-0.183-0.807-0.183-1.219c-0.534,0.73-1.295,1.342-2.501,1.342C70.712,29.503,69.431,28.193,69.431,25.389z
				 M75.057,26.866v-3.002c-0.534-0.507-0.976-0.748-1.617-0.748c-1.021,0-1.554,0.776-1.554,2.258c0,1.354,0.487,2.287,1.584,2.287
				C74.096,27.661,74.661,27.277,75.057,26.866z M83.711,29.382V18.1h4.102c2.41,0,4.604,0.641,4.604,3.612
				c0,3.033-2.377,3.66-4.635,3.66h-1.601v4.01H83.711z M86.182,23.45h1.691c1.54,0,2.119-0.595,2.119-1.677
				c0-1.051-0.564-1.646-2.119-1.646h-1.691V23.45z M93.68,29.382V18.1h2.439v11.282H93.68z M97.448,27.309
				c0-1.875,1.587-2.912,5.153-3.201V23.91c0-0.596-0.307-0.977-1.1-0.977c-1.037,0-1.921,0.426-2.668,1.006l-1.037-1.402
				c0.811-0.73,2.027-1.447,4.057-1.447c2.228,0,3.143,1.098,3.143,3.188V27.4c0,0.978,0.061,1.57,0.229,1.981h-2.438
				c-0.105-0.337-0.186-0.731-0.186-1.188c-0.746,0.839-1.631,1.312-2.836,1.312C98.516,29.503,97.448,28.698,97.448,27.309z
				 M102.602,26.956v-1.508c-1.937,0.196-2.759,0.687-2.759,1.434c0,0.519,0.366,0.777,0.898,0.777
				C101.596,27.661,102.189,27.37,102.602,26.956z M107.314,27.096V23.04h-1.357v-1.785h1.357v-2.789h2.438v2.791h2.089v1.783
				h-2.089v3.521c0,0.869,0.244,1.146,1.129,1.146c0.271,0,0.641-0.031,0.809-0.092v1.752c-0.184,0.047-1.082,0.123-1.615,0.123
				C107.665,29.489,107.314,28.62,107.314,27.096z M114.003,29.382V23.04h-1.356v-1.785h1.356v-0.562
				c0-1.359,0.412-2.654,2.821-2.654c0.473,0,1.341,0.076,1.479,0.107v1.707c-0.121-0.029-0.473-0.062-0.717-0.062
				c-0.595,0-1.145,0.106-1.145,0.978v0.487h1.771v1.783h-1.771v6.343L114.003,29.382L114.003,29.382z M118.876,25.325
				c0-3.185,2.181-4.236,4.163-4.236c1.968,0,4.148,1.054,4.148,4.236c0,3.157-2.183,4.226-4.148,4.226
				C121.072,29.55,118.876,28.482,118.876,25.325z M124.732,25.341c0-1.354-0.476-2.454-1.693-2.454
				c-1.174,0-1.707,0.991-1.707,2.454c0,1.354,0.457,2.486,1.707,2.486C124.199,27.827,124.732,26.82,124.732,25.341z
				 M128.57,29.382v-8.127h2.453v1.356h0.017c0.442-0.688,1.22-1.524,2.745-1.524h0.076l-0.03,2.181
				c-0.092-0.017-0.488-0.045-0.642-0.045c-0.977,0-1.707,0.52-2.166,1.112v5.047H128.57z M134.893,29.382v-8.127h2.455v1.281
				c0.487-0.642,1.387-1.449,2.668-1.449c1.357,0,1.998,0.563,2.228,1.449c0.487-0.627,1.401-1.449,2.685-1.449
				c1.646,0,2.379,1.037,2.379,2.486v5.809h-2.455V24.23c0-0.732-0.166-1.113-0.885-1.113c-0.609,0-1.099,0.334-1.632,0.809v5.458
				h-2.455V24.23c0-0.733-0.167-1.114-0.885-1.114c-0.606,0-1.099,0.336-1.646,0.81v5.458h-2.455v-0.002H134.893z"/>
		</g>
	</g>
</g>
<g>
	<path fill="#808285" d="M2.586,9.033V2.372h2.513c0.441,0,0.78,0.021,1.013,0.064c0.327,0.054,0.6,0.158,0.822,0.311
		C7.155,2.9,7.333,3.114,7.468,3.39C7.603,3.666,7.67,3.968,7.67,4.298c0,0.567-0.181,1.045-0.541,1.438
		c-0.36,0.392-1.013,0.588-1.954,0.588H3.467v2.708L2.586,9.033L2.586,9.033z M3.467,5.539h1.722c0.57,0,0.974-0.106,1.213-0.318
		C6.642,5.008,6.76,4.71,6.76,4.325c0-0.279-0.07-0.517-0.21-0.715C6.408,3.411,6.223,3.28,5.993,3.217
		c-0.148-0.04-0.422-0.06-0.822-0.06H3.467V5.539z"/>
	<path fill="#808285" d="M8.383,6.62c0-0.894,0.249-1.555,0.745-1.986c0.415-0.357,0.921-0.536,1.518-0.536
		c0.664,0,1.205,0.218,1.626,0.652c0.422,0.435,0.632,1.035,0.632,1.801c0,0.622-0.093,1.11-0.28,1.466
		c-0.186,0.355-0.457,0.632-0.813,0.829c-0.356,0.196-0.744,0.295-1.166,0.295c-0.675,0-1.221-0.217-1.638-0.65
		C8.591,8.059,8.383,7.435,8.383,6.62z M9.223,6.62c0,0.619,0.135,1.081,0.405,1.389c0.27,0.307,0.609,0.46,1.018,0.46
		c0.406,0,0.744-0.154,1.013-0.463c0.27-0.309,0.404-0.78,0.404-1.412c0-0.597-0.136-1.049-0.406-1.354
		c-0.272-0.309-0.609-0.462-1.012-0.462c-0.409,0-0.748,0.154-1.018,0.459C9.358,5.541,9.223,6.002,9.223,6.62z"/>
	<path fill="#808285" d="M14.752,9.033l-1.476-4.826h0.845l0.768,2.786l0.286,1.036c0.012-0.052,0.095-0.383,0.25-0.995l0.768-2.826
		h0.84l0.723,2.799l0.241,0.922l0.277-0.932l0.827-2.79h0.795l-1.509,4.826h-0.85l-0.768-2.89L16.583,5.32l-0.977,3.713H14.752z"/>
	<path fill="#808285" d="M23.884,7.479l0.846,0.105c-0.133,0.493-0.38,0.876-0.741,1.15c-0.36,0.271-0.821,0.408-1.381,0.408
		c-0.706,0-1.266-0.217-1.679-0.652c-0.413-0.435-0.62-1.044-0.62-1.829c0-0.812,0.209-1.442,0.627-1.89s0.959-0.673,1.626-0.673
		c0.646,0,1.172,0.22,1.581,0.659c0.409,0.439,0.614,1.057,0.614,1.854c0,0.048-0.001,0.121-0.004,0.218h-3.598
		c0.03,0.531,0.18,0.936,0.45,1.218c0.269,0.282,0.605,0.422,1.008,0.422c0.3,0,0.556-0.078,0.768-0.236
		C23.592,8.075,23.761,7.824,23.884,7.479z M21.2,6.157h2.694c-0.037-0.406-0.14-0.71-0.309-0.914
		c-0.261-0.314-0.599-0.473-1.013-0.473c-0.376,0-0.691,0.125-0.947,0.377C21.368,5.399,21.227,5.735,21.2,6.157z"/>
	<path fill="#808285" d="M25.748,9.033V4.207h0.735v0.732c0.188-0.342,0.361-0.568,0.52-0.677c0.16-0.109,0.334-0.164,0.525-0.164
		c0.276,0,0.556,0.088,0.841,0.265l-0.281,0.758c-0.2-0.118-0.4-0.178-0.601-0.178c-0.178,0-0.339,0.055-0.481,0.161
		c-0.142,0.108-0.244,0.257-0.305,0.448c-0.09,0.291-0.136,0.609-0.136,0.954v2.527H25.748z"/>
	<path fill="#808285" d="M32.158,7.479l0.845,0.105c-0.133,0.493-0.381,0.876-0.74,1.15c-0.361,0.271-0.822,0.408-1.382,0.408
		c-0.706,0-1.265-0.217-1.678-0.652c-0.413-0.435-0.62-1.044-0.62-1.829c0-0.812,0.208-1.442,0.626-1.89s0.96-0.673,1.626-0.673
		c0.646,0,1.172,0.22,1.581,0.659c0.41,0.439,0.614,1.057,0.614,1.854c0,0.048-0.001,0.121-0.005,0.218h-3.598
		c0.03,0.531,0.18,0.936,0.45,1.218c0.27,0.282,0.605,0.422,1.009,0.422c0.3,0,0.555-0.078,0.768-0.236
		C31.866,8.075,32.034,7.824,32.158,7.479z M29.474,6.157h2.694c-0.038-0.406-0.141-0.71-0.31-0.914
		c-0.26-0.314-0.597-0.473-1.013-0.473c-0.375,0-0.69,0.125-0.946,0.377C29.642,5.399,29.5,5.735,29.474,6.157z"/>
	<path fill="#808285" d="M37.16,9.033V8.424c-0.306,0.478-0.756,0.718-1.35,0.718c-0.385,0-0.738-0.106-1.061-0.317
		C34.427,8.612,34.176,8.316,34,7.936c-0.179-0.38-0.267-0.817-0.267-1.311c0-0.482,0.081-0.918,0.241-1.312
		c0.16-0.392,0.401-0.692,0.723-0.902c0.321-0.209,0.68-0.313,1.077-0.313c0.291,0,0.549,0.061,0.776,0.185
		c0.228,0.123,0.413,0.282,0.555,0.479v-2.39h0.813v6.661H37.16z M34.575,6.625c0,0.617,0.131,1.08,0.391,1.386
		c0.26,0.305,0.568,0.458,0.922,0.458c0.358,0,0.661-0.146,0.912-0.439c0.249-0.292,0.374-0.738,0.374-1.337
		c0-0.66-0.126-1.145-0.381-1.454c-0.254-0.309-0.568-0.463-0.94-0.463c-0.363,0-0.667,0.149-0.912,0.446
		C34.696,5.518,34.575,5.985,34.575,6.625z"/>
	<path fill="#808285" d="M42.543,9.033h-0.758V2.372h0.818v2.375c0.345-0.432,0.786-0.649,1.322-0.649
		c0.296,0,0.577,0.06,0.843,0.18c0.266,0.12,0.483,0.288,0.654,0.505c0.171,0.216,0.306,0.478,0.402,0.783
		c0.096,0.306,0.146,0.633,0.146,0.981c0,0.826-0.204,1.466-0.613,1.917c-0.409,0.451-0.9,0.677-1.473,0.677
		c-0.569,0-1.016-0.238-1.34-0.713L42.543,9.033L42.543,9.033z M42.535,6.584c0,0.577,0.078,0.996,0.236,1.253
		c0.258,0.422,0.605,0.631,1.045,0.631c0.358,0,0.667-0.155,0.927-0.466c0.26-0.31,0.391-0.772,0.391-1.387
		c0-0.631-0.126-1.095-0.375-1.395c-0.25-0.3-0.552-0.45-0.906-0.45c-0.358,0-0.667,0.155-0.927,0.467
		C42.665,5.547,42.535,5.996,42.535,6.584z"/>
	<path fill="#808285" d="M46.928,10.891l-0.091-0.768c0.178,0.048,0.334,0.073,0.468,0.073c0.182,0,0.327-0.03,0.436-0.091
		c0.109-0.06,0.199-0.146,0.269-0.254c0.051-0.082,0.135-0.285,0.25-0.609c0.015-0.046,0.04-0.112,0.073-0.2l-1.831-4.835h0.881
		l1.004,2.795c0.13,0.354,0.246,0.727,0.349,1.117c0.095-0.375,0.207-0.741,0.337-1.099l1.031-2.812h0.818l-1.836,4.907
		c-0.197,0.531-0.351,0.896-0.459,1.096c-0.145,0.269-0.312,0.467-0.5,0.592c-0.188,0.126-0.412,0.189-0.672,0.189
		C47.297,10.991,47.122,10.958,46.928,10.891z"/>
</g>
<g>
	<g>
		<g>
			
				<linearGradient id="SVGID_1_" gradientUnits="userSpaceOnUse" x1="652.5566" y1="590.7109" x2="652.5566" y2="608.8809" gradientTransform="matrix(1 0 0 1 -632 -576)">
				<stop  offset="0" style="stop-color:#27B7EA"/>
				<stop  offset="0.069" style="stop-color:#28ACE3"/>
				<stop  offset="0.2911" style="stop-color:#2C90CE"/>
				<stop  offset="0.5022" style="stop-color:#2F7ABF"/>
				<stop  offset="0.6967" style="stop-color:#306CB5"/>
				<stop  offset="0.8686" style="stop-color:#3064AF"/>
				<stop  offset="1" style="stop-color:#3061AD"/>
			</linearGradient>
			<polyline fill="url(#SVGID_1_)" points="2.194,32.881 20.754,32.881 38.919,14.712 2.194,14.712 2.194,32.881 			"/>
			<path fill="#FFFFFF" d="M23.988,18.129l-3.615-0.003v8.597l-3.158-8.597h-3.131l-2.696,7.188
				c-0.287-1.812-2.162-2.438-3.637-2.907c-0.974-0.313-2.007-0.772-1.997-1.282c0.008-0.417,0.554-0.805,1.636-0.746
				c0.728,0.038,1.37,0.096,2.646,0.712l1.255-2.188c-1.166-0.592-2.775-0.967-4.095-0.968H7.188c-1.539,0-2.821,0.498-3.616,1.32
				c-0.554,0.575-0.853,1.303-0.865,2.107c-0.02,1.109,0.387,1.896,1.241,2.522c0.722,0.53,1.645,0.873,2.458,1.125
				C7.41,25.32,8.23,25.59,8.218,26.166c-0.007,0.21-0.087,0.404-0.238,0.562c-0.25,0.26-0.634,0.355-1.165,0.365
				c-1.023,0.022-1.783-0.14-2.993-0.854l-1.116,2.22c1.207,0.687,2.635,1.089,4.092,1.089l0.188-0.002
				c1.269-0.021,2.292-0.385,3.11-1.043c0.047-0.036,0.089-0.076,0.132-0.113l-0.362,0.967h3.284l0.551-1.674
				c0.576,0.196,1.233,0.306,1.931,0.306c0.678,0,1.317-0.104,1.884-0.289l0.531,1.657h5.355v-3.469h1.168
				c2.824,0,4.494-1.438,4.494-3.848C29.065,19.361,27.442,18.129,23.988,18.129z M15.634,25.482c-0.422,0-0.817-0.073-1.159-0.201
				l1.146-3.615h0.022l1.125,3.624C16.43,25.41,16.043,25.482,15.634,25.482z M24.201,23.404h-0.797v-2.912h0.797
				c1.062,0,1.909,0.354,1.909,1.438C26.11,23.052,25.262,23.404,24.201,23.404"/>
		</g>
	</g>
	<path fill="#3061AD" d="M25.398,32.109c0-0.58,0.437-1.021,0.998-1.021c0.555,0,0.992,0.438,0.992,1.021
		c0,0.592-0.437,1.025-0.992,1.025C25.835,33.137,25.398,32.701,25.398,32.109z M26.396,33.341c0.668,0,1.239-0.521,1.239-1.229
		c0-0.701-0.571-1.223-1.239-1.223c-0.673,0-1.245,0.521-1.245,1.223C25.151,32.82,25.723,33.341,26.396,33.341z M26.137,32.209
		h0.247l0.37,0.611h0.243l-0.406-0.622c0.211-0.024,0.37-0.136,0.37-0.392c0-0.277-0.165-0.398-0.498-0.398h-0.539v1.412h0.213
		V32.209z M26.137,32.025v-0.438h0.292c0.147,0,0.305,0.031,0.305,0.207c0,0.22-0.161,0.229-0.341,0.229h-0.256V32.025z"/>
</g>
</svg>
